<?xml version="1.0" encoding="iso-8859-1"?>
<!-- Generator: Adobe Illustrator 19.0.0, SVG Export Plug-In . SVG Version: 6.00 Build 0)  -->
<svg xmlns="http://www.w3.org/2000/svg"  version="1.1" id="Capa_1" x="0px" y="0px" viewBox="0 0 512 512" style="enable-background:new 0 0 512 512;" xml:space="preserve" width="512px" height="512px">
<g>
	<g>
		<path d="M259.992,31.28c-58.088,0-105.345,47.258-105.345,105.346c0,58.088,47.258,105.345,105.346,105.345    c58.088,0,105.345-47.258,105.345-105.345C365.337,78.539,318.08,31.28,259.992,31.28z M259.993,211.947    c-41.532,0-75.322-33.789-75.322-75.321c0-41.532,33.789-75.322,75.322-75.322s75.322,33.789,75.322,75.322    C335.314,178.158,301.525,211.947,259.993,211.947z" fill="#f0ddef"/>
	</g>
</g>
<g>
	<g>
		<path d="M105.346,270.029C47.258,270.029,0,317.287,0,375.375S47.258,480.72,105.346,480.72    c58.088,0,105.346-47.258,105.346-105.345S163.433,270.029,105.346,270.029z M105.346,450.696    c-41.532,0-75.322-33.789-75.322-75.321s33.789-75.322,75.322-75.322s75.322,33.789,75.322,75.322    S146.878,450.696,105.346,450.696z" fill="#f0ddef"/>
	</g>
</g>
<g>
	<g>
		<path d="M406.655,270.029c-58.087,0-105.346,47.258-105.346,105.346c0,58.088,47.258,105.345,105.346,105.345    C464.743,480.72,512,433.462,512,375.375S464.742,270.029,406.655,270.029z M406.655,450.696    c-41.532,0-75.322-33.789-75.322-75.321s33.789-75.322,75.322-75.322c41.532,0,75.321,33.789,75.321,75.322    S448.188,450.696,406.655,450.696z" fill="#f0ddef"/>
	</g>
</g>
</svg>
