<?xml version="1.0" encoding="iso-8859-1"?>
<!-- Generator: Adobe Illustrator 19.0.0, SVG Export Plug-In . SVG Version: 6.00 Build 0)  -->
<svg xmlns="http://www.w3.org/2000/svg"  version="1.1" id="Capa_1" x="0px" y="0px" viewBox="0 0 480 480" style="enable-background:new 0 0 480 480;" xml:space="preserve" width="512px" height="512px">
	<g>
		<path d="M472.832,168.04c-84.344-8.872-152-76.536-160.88-160.88C311.528,3.088,308.096,0,304,0C202.544,0,120,82.544,120,184    c0,4.096,3.088,7.528,7.168,7.96c31.472,3.312,60.608,14.824,85.248,32.32L8.976,427.72C3.184,433.504,0,441.192,0,449.368    C0,466.264,13.736,480,30.632,480c8.176,0,15.872-3.184,21.656-8.976l203.44-203.44c17.496,24.64,29.008,53.776,32.32,85.248    c0.424,4.08,3.856,7.168,7.952,7.168c101.456,0,184-82.544,184-184C480,171.904,476.912,168.472,472.832,168.04z M136.144,176.952    c3.608-87.048,73.76-157.2,160.808-160.808c1.192,8.312,3.064,16.4,5.28,24.352c-76.008,4.872-136.864,65.728-141.736,141.736    C152.544,180.024,144.456,178.152,136.144,176.952z M40.976,459.712C38.208,462.48,34.536,464,30.632,464    C22.56,464,16,457.44,16,449.368c0-3.904,1.52-7.576,4.288-10.344l204.848-204.848c7.432,6.336,14.352,13.248,20.68,20.68    L40.976,459.712z M292.672,303.76c-7.04-18.928-16.896-36.48-29.096-52.184c-0.216-0.392-0.336-0.824-0.616-1.184    c-9.736-12.4-20.952-23.616-33.352-33.352c-0.36-0.288-0.792-0.408-1.184-0.616c-15.704-12.2-33.256-22.056-52.184-29.096    c2.44-71.256,59.832-128.648,131.088-131.088c19.968,53.68,62.752,96.464,116.432,116.432    C421.32,243.928,363.928,301.32,292.672,303.76z M303.048,343.856c-1.192-8.312-3.064-16.4-5.28-24.352    c76.008-4.872,136.864-65.728,141.736-141.736c7.952,2.208,16.04,4.08,24.352,5.28    C460.248,270.096,390.096,340.248,303.048,343.856z" fill="#e58b8b"/>
	</g>
	<g>
		<path d="M337.656,142.336c-12.336-12.336-37.832-5.464-59.304,16c-9.408,9.408-16.464,20.216-19.872,30.432    c-4.032,12.088-2.656,22.344,3.872,28.864c4.072,4.072,9.592,6.144,16.112,6.144c3.928,0,8.208-0.752,12.76-2.264    c10.216-3.408,21.024-10.464,30.432-19.872C343.12,180.176,349.992,154.68,337.656,142.336z M310.344,190.328    c-7.576,7.576-16.384,13.408-24.176,16c-5.776,1.92-10.56,1.92-12.496-0.008c-1.928-1.928-1.936-6.72-0.008-12.496    c2.6-7.792,8.432-16.608,16-24.176c12.12-12.112,24.752-17.464,31.864-17.464c2.184,0,3.848,0.504,4.816,1.472    C330.464,157.776,326.176,174.496,310.344,190.328z" fill="#e58b8b"/>
	</g>
</svg>
