<?xml version="1.0" encoding="iso-8859-1"?>
<!-- Generator: Adobe Illustrator 19.0.0, SVG Export Plug-In . SVG Version: 6.00 Build 0)  -->
<svg xmlns="http://www.w3.org/2000/svg"  version="1.1" id="Capa_1" x="0px" y="0px" viewBox="0 0 511.998 511.998" style="enable-background:new 0 0 511.998 511.998;" xml:space="preserve" width="512px" height="512px">
	<g>
		<path d="M511.596,37.771c-1.195-5.059-4.921-9.139-9.853-10.783C419.218-0.52,328.38,25.709,273.229,93.046L156.931,231.258    c-16.529-7.352-36.612-4.271-50.149,9.266c-13.828,13.829-16.758,34.49-8.789,51.214c-16.657,16.657-60.746,60.745-76.062,76.061    c-29.242,29.241-29.242,76.822,0,106.063c29.24,29.241,76.821,29.243,106.063,0c15.594-15.595,59.393-59.394,76.061-76.062    c16.727,7.97,37.386,5.04,51.214-8.789c13.331-13.332,16.521-33.012,9.593-49.394l156.261-116.68    c3.792-2.832,6.025-7.287,6.025-12.019c0-50.709,19.747-98.385,55.604-134.242l24.852-24.852    C511.28,48.148,512.791,42.83,511.596,37.771z M106.782,452.651c-17.585,17.583-46.051,17.585-63.638-0.001    c-17.584-17.585-17.586-46.051,0-63.638l10.607-10.606l63.638,63.638L106.782,452.651z M138.601,420.831l-63.638-63.638    l21.213-21.213l63.638,63.638L138.601,420.831z M234.057,367.799c-5.849,5.849-15.365,5.849-21.213,0    c-5.855-5.855-15.356-5.857-21.212,0l-10.607,10.607l-63.638-63.638l10.607-10.606c5.855-5.855,5.857-15.356,0-21.212    c-5.848-5.849-5.848-15.365,0-21.212c5.847-5.847,15.363-5.85,21.212,0c25.195,25.195,59.406,59.406,84.85,84.85    C239.905,352.435,239.905,361.951,234.057,367.799z M461.543,55.463c-39.636,39.636-62.375,92.598-64.262,147.838l-151.19,112.893    l-22.64-22.64l114.455-114.455c5.858-5.858,5.858-15.354,0-21.212c-5.857-5.858-15.355-5.858-21.212,0L202.239,272.343    l-22.086-22.086l116.095-137.972c0.044-0.053,0.088-0.106,0.132-0.159c41.521-50.747,107.984-74.42,171.432-62.93L461.543,55.463z    " fill="#a4eab8"/>
	</g>
</svg>
