<?xml version="1.0" encoding="iso-8859-1"?>
<!-- Generator: Adobe Illustrator 17.1.0, SVG Export Plug-In . SVG Version: 6.00 Build 0)  -->
<svg xmlns="http://www.w3.org/2000/svg"  version="1.1" id="Capa_1" x="0px" y="0px" viewBox="0 0 459.993 459.993" style="enable-background:new 0 0 459.993 459.993;" xml:space="preserve" width="512px" height="512px">
	<g>
		<path d="M0.138,11.621c0.025,0.153,0.051,0.305,0.083,0.456c0.032,0.152,0.071,0.303,0.111,0.454   c0.04,0.153,0.08,0.305,0.127,0.456c0.046,0.148,0.1,0.293,0.154,0.439c0.054,0.149,0.107,0.299,0.169,0.446   c0.061,0.145,0.131,0.287,0.2,0.43c0.068,0.143,0.133,0.286,0.209,0.426c0.079,0.147,0.169,0.29,0.256,0.434   c0.078,0.129,0.152,0.26,0.236,0.387c0.11,0.164,0.232,0.32,0.352,0.479c0.076,0.1,0.145,0.203,0.225,0.3   c0.208,0.253,0.428,0.499,0.664,0.735l200.481,200.481c1.953,1.952,4.512,2.929,7.071,2.929s5.119-0.977,7.071-2.929   c3.905-3.905,3.905-10.237,0-14.143L56.479,42.332c6.313,1.155,12.839,2.095,19.589,3.065   c40.003,5.748,89.788,12.902,153.644,76.759c0.013,0.013,0.027,0.023,0.04,0.036c0.18,0.178,0.371,0.346,0.564,0.51   c0.059,0.05,0.115,0.106,0.175,0.154c0.206,0.167,0.422,0.321,0.642,0.472c0.054,0.037,0.104,0.079,0.158,0.115   c0.194,0.127,0.398,0.242,0.602,0.356c0.084,0.047,0.165,0.102,0.25,0.146c0.132,0.069,0.272,0.126,0.408,0.189   c0.163,0.076,0.325,0.158,0.491,0.225c0.092,0.037,0.189,0.064,0.282,0.099c0.218,0.08,0.435,0.161,0.656,0.225   c0.095,0.027,0.194,0.046,0.291,0.071c0.224,0.058,0.449,0.115,0.676,0.157c0.021,0.004,0.04,0.01,0.06,0.014   c9.157,1.65,19.994,8.007,28.992,17.004c2.211,2.211,4.308,4.583,6.231,7.051c1.762,2.261,4.41,3.656,7.271,3.833   c0.206,0.013,0.412,0.019,0.617,0.019c2.643,0,5.189-1.048,7.07-2.929l26.794-26.794c3.905-3.905,3.905-10.237,0-14.143   l-4.914-4.914c7.117,2.231,12.293,3.589,12.841,3.731c5.342,1.385,10.803-1.817,12.192-7.162c1.391-5.344-1.815-10.804-7.16-12.194   c-9.015-2.347-34.785-10.102-46.024-17.8c-0.097-0.069-0.194-0.137-0.293-0.202c-38.144-26.359-74.363-42.997-110.717-50.858   c-31.592-6.831-57.854-5.977-81.02-5.223c-28.291,0.921-50.637,1.647-71.203-12.578c-0.026-0.018-0.053-0.032-0.08-0.05   c-0.152-0.103-0.308-0.195-0.463-0.289c-0.123-0.074-0.245-0.15-0.37-0.219c-0.149-0.081-0.3-0.152-0.452-0.226   c-0.142-0.068-0.283-0.137-0.427-0.198c-0.137-0.058-0.276-0.109-0.416-0.16c-0.165-0.062-0.329-0.122-0.496-0.174   c-0.126-0.039-0.252-0.073-0.379-0.107c-0.182-0.049-0.365-0.095-0.549-0.134c-0.119-0.025-0.239-0.046-0.359-0.066   c-0.193-0.033-0.385-0.062-0.578-0.083c-0.118-0.013-0.235-0.023-0.353-0.032c-0.194-0.015-0.387-0.024-0.582-0.028   c-0.122-0.002-0.244-0.002-0.365,0C9.627,0.005,9.44,0.015,9.253,0.029c-0.129,0.009-0.257,0.02-0.386,0.035   C8.69,0.083,8.514,0.11,8.338,0.14C8.202,0.162,8.066,0.185,7.931,0.214C7.763,0.249,7.598,0.292,7.432,0.336   C7.293,0.372,7.155,0.408,7.017,0.451C6.855,0.501,6.696,0.56,6.536,0.619c-0.135,0.05-0.271,0.097-0.404,0.153   C5.967,0.841,5.806,0.92,5.644,0.998C5.522,1.057,5.399,1.112,5.279,1.176c-0.184,0.099-0.363,0.209-0.541,0.32   C4.646,1.553,4.552,1.603,4.462,1.663C3.923,2.022,3.413,2.436,2.942,2.906C2.936,2.911,2.93,2.916,2.925,2.921   c-0.067,0.066-0.123,0.14-0.188,0.208c-0.142,0.15-0.286,0.297-0.42,0.458C2.306,3.6,2.296,3.616,2.285,3.629   C2.176,3.761,2.08,3.898,1.979,4.034C1.886,4.159,1.789,4.282,1.702,4.41C1.604,4.555,1.518,4.704,1.428,4.853   C1.352,4.981,1.272,5.107,1.202,5.237c-0.08,0.147-0.15,0.298-0.221,0.449C0.914,5.825,0.846,5.962,0.787,6.103   C0.725,6.249,0.672,6.397,0.617,6.546c-0.055,0.15-0.11,0.3-0.158,0.452C0.414,7.142,0.376,7.288,0.337,7.434   C0.295,7.594,0.254,7.752,0.22,7.913C0.19,8.057,0.165,8.202,0.141,8.346C0.114,8.511,0.089,8.675,0.07,8.841   C0.053,8.985,0.041,9.13,0.03,9.275C0.018,9.441,0.01,9.606,0.006,9.772c-0.003,0.147-0.003,0.294,0,0.441   c0.004,0.163,0.012,0.326,0.023,0.488C0.04,10.851,0.053,11,0.07,11.15C0.089,11.307,0.113,11.465,0.138,11.621z M278.58,128.23   c-0.146-0.148-0.293-0.295-0.439-0.442c-7.075-7.075-15.021-12.827-23.07-16.849L270.37,95.64l20.4,20.4L278.58,128.23z    M257.434,80.292l-20.738,20.737c-43.055-40.976-80.869-58.258-112.889-66.894C159.384,35.671,202.197,44.361,257.434,80.292z" fill="#e0bade"/>
		<path d="M458.321,455.534c0.074-0.112,0.138-0.229,0.207-0.342c0.095-0.156,0.193-0.312,0.279-0.473   c0.075-0.139,0.139-0.282,0.207-0.425c0.067-0.141,0.137-0.28,0.197-0.424c0.064-0.151,0.118-0.306,0.174-0.46   c0.051-0.141,0.103-0.28,0.148-0.423c0.048-0.155,0.089-0.312,0.13-0.468c0.038-0.147,0.076-0.294,0.108-0.443   c0.032-0.151,0.058-0.304,0.083-0.457c0.026-0.158,0.05-0.316,0.069-0.476c0.017-0.146,0.029-0.291,0.039-0.437   c0.012-0.17,0.021-0.339,0.024-0.509c0.003-0.139,0.003-0.276,0-0.414c-0.004-0.178-0.012-0.354-0.025-0.532   c-0.01-0.133-0.021-0.266-0.036-0.398c-0.02-0.179-0.047-0.356-0.077-0.534c-0.023-0.133-0.046-0.267-0.074-0.399   c-0.036-0.17-0.079-0.34-0.124-0.509c-0.037-0.14-0.074-0.278-0.118-0.417c-0.049-0.154-0.105-0.307-0.161-0.46   c-0.055-0.15-0.11-0.3-0.173-0.447c-0.057-0.135-0.122-0.267-0.185-0.399c-0.076-0.16-0.152-0.319-0.238-0.477   c-0.065-0.119-0.138-0.234-0.208-0.352c-0.097-0.161-0.192-0.322-0.298-0.479c-0.017-0.025-0.031-0.052-0.048-0.077   c-14.226-20.566-13.499-42.912-12.578-71.203c0.754-23.169,1.608-49.429-5.223-81.02c-7.861-36.354-24.5-72.575-50.859-110.719   c-0.065-0.098-0.132-0.195-0.201-0.291c-7.698-11.24-15.453-37.01-17.8-46.024c-1.391-5.345-6.858-8.551-12.194-7.16   c-5.345,1.39-8.551,6.848-7.162,12.192c0.142,0.547,1.5,5.723,3.731,12.839l-4.914-4.914c-3.906-3.904-10.236-3.904-14.143,0   l-26.794,26.794c-2.026,2.027-3.086,4.826-2.91,7.688c0.177,2.86,1.572,5.509,3.833,7.271c2.468,1.924,4.84,4.021,7.053,6.233   c8.995,8.995,15.352,19.832,17.002,28.99c0.004,0.021,0.01,0.04,0.014,0.061c0.027,0.147,0.066,0.293,0.1,0.439   c0.037,0.158,0.071,0.317,0.115,0.472c0.039,0.139,0.088,0.274,0.133,0.411c0.054,0.162,0.107,0.323,0.168,0.481   c0.049,0.125,0.104,0.248,0.159,0.372c0.072,0.166,0.147,0.33,0.227,0.49c0.057,0.114,0.119,0.227,0.181,0.339   c0.093,0.168,0.19,0.332,0.292,0.493c0.063,0.101,0.128,0.2,0.195,0.299c0.12,0.175,0.245,0.345,0.375,0.511   c0.063,0.08,0.123,0.161,0.189,0.24c0.168,0.201,0.344,0.395,0.526,0.582c0.034,0.034,0.062,0.072,0.096,0.106   c63.856,63.855,71.011,113.641,76.759,153.644c0.97,6.75,1.911,13.276,3.065,19.589l-161.07-161.07   c-3.906-3.904-10.236-3.904-14.143,0c-3.905,3.905-3.905,10.237,0,14.143l200.481,200.481c0.243,0.243,0.496,0.471,0.757,0.684   c1.834,1.496,4.074,2.245,6.314,2.245h0.001h0.001c0.303,0,0.606-0.016,0.908-0.043c0.096-0.009,0.191-0.025,0.287-0.037   c0.205-0.024,0.41-0.052,0.615-0.089c0.117-0.021,0.232-0.05,0.348-0.075c0.181-0.04,0.361-0.082,0.54-0.132   c0.125-0.035,0.249-0.074,0.372-0.114c0.167-0.054,0.333-0.111,0.497-0.174c0.128-0.049,0.255-0.101,0.381-0.155   c0.156-0.067,0.31-0.14,0.464-0.215c0.128-0.063,0.255-0.126,0.38-0.194c0.15-0.082,0.296-0.172,0.442-0.262   c0.122-0.075,0.244-0.147,0.363-0.229c0.154-0.104,0.302-0.218,0.452-0.332c0.103-0.078,0.209-0.152,0.309-0.235   c0.015-0.013,0.031-0.022,0.046-0.035c0.156-0.131,0.299-0.271,0.446-0.409c0.072-0.068,0.149-0.128,0.219-0.198   c0.006-0.006,0.011-0.013,0.017-0.019c0.236-0.237,0.458-0.482,0.666-0.737c0.021-0.026,0.038-0.054,0.059-0.08   C457.99,456.002,458.162,455.772,458.321,455.534z M331.759,181.409l12.19-12.189l20.4,20.399l-15.299,15.299   c-4.021-8.048-9.774-15.994-16.848-23.067C332.055,181.703,331.907,181.555,331.759,181.409z M358.959,223.293l20.737-20.738   c35.936,55.241,44.622,98.049,46.156,133.628C417.217,304.162,399.935,266.348,358.959,223.293z" fill="#e0bade"/>
		<path d="M143.886,330.245l225.349-225.348l13.753,13.753c1.897,1.897,4.45,2.929,7.071,2.929c0.765,0,1.536-0.088,2.298-0.268   c3.373-0.796,6.093-3.282,7.189-6.57l20.824-62.474c1.197-3.593,0.262-7.555-2.416-10.233s-6.64-3.611-10.233-2.416l-62.474,20.824   c-3.288,1.097-5.774,3.816-6.57,7.189s0.211,6.918,2.661,9.369l13.753,13.753L129.743,316.102l-28.933-6.24   c-3.319-0.718-6.777,0.304-9.18,2.704l-41.649,41.649c-2.588,2.589-3.556,6.386-2.521,9.897c1.034,3.512,3.905,6.177,7.484,6.949   l27.953,6.029l6.029,27.952c0.772,3.579,3.438,6.449,6.95,7.484c0.931,0.274,1.881,0.407,2.825,0.407   c2.615,0,5.169-1.026,7.072-2.929l41.649-41.648c2.402-2.402,3.42-5.859,2.705-9.18L143.886,330.245z M395.072,64.916   l-9.383,28.149l-9.374-9.374c-0.003-0.003-0.006-0.007-0.009-0.01s-0.007-0.006-0.01-0.009l-9.374-9.374L395.072,64.916z    M104.608,382.887l-3.52-16.319c-0.828-3.84-3.828-6.839-7.667-7.667l-16.32-3.521l24.819-24.819l10.993,2.371l-9.153,9.153   c-3.905,3.905-3.905,10.237,0,14.143c1.953,1.952,4.512,2.929,7.071,2.929s5.119-0.977,7.071-2.929l9.153-9.153l2.371,10.994   L104.608,382.887z" fill="#e0bade"/>
	</g>
</svg>
