<?xml version="1.0" encoding="iso-8859-1"?>
<!-- Generator: Adobe Illustrator 19.0.0, SVG Export Plug-In . SVG Version: 6.00 Build 0)  -->
<svg xmlns="http://www.w3.org/2000/svg"  version="1.1" id="Capa_1" x="0px" y="0px" viewBox="0 0 512 512" style="enable-background:new 0 0 512 512;" xml:space="preserve" width="512px" height="512px">
	<g>
		<path d="M469.152,349.844l-48.192-98.322V210c0-32.778-26.34-60-60-60c-12.342,0-23.823,3.744-33.371,10.159    C319.378,136.795,297.093,120,270.959,120s-48.419,16.795-56.629,40.159C204.782,153.744,193.301,150,180.959,150    c-26.137,0-48.411,16.806-56.619,40.174C114.673,183.698,103.123,180,90.959,180c-33.084,0-60,26.916-60,60v152    c0,33.084,26.916,60,60,60c17.901,0,33.997-7.881,45-20.354c11.003,12.474,27.099,20.354,45,20.354    c11.183,0,21.655-3.084,30.627-8.433c-0.72,5.044-0.818,10.206-0.234,15.368c1.695,14.979,9.328,28.669,21.494,38.547    C244.376,506.844,258.96,512,273.912,512h90.573c44.687,0,85.64-24.023,104.332-61.202    C484.998,418.614,485.119,381.819,469.152,349.844z M225.959,332c-8.284,0-15,6.716-15,15v45c0,16.542-13.458,30-30,30    c-16.542,0-30-13.458-30-30v-45c0-8.284-6.716-15-15-15s-15,6.716-15,15v45c0,16.542-13.458,30-30,30s-30-13.458-30-30V240    c0-16.542,13.458-30,30-30c0.044,0,0.089,0,0.133,0c14.364,0.063,26.532,10.418,28.944,24.578l0.923,5.422c0,8.284,6.716,15,15,15    s15-6.716,15-15v-30c0-16.542,13.458-30,30-30c16.542,0,30,13.458,30,30c0,8.284,6.716,15,15,15s15-6.716,15-15v-30    c0-16.542,13.458-30,30-30s30,13.458,30,30v30c0,8.284,6.716,15,15,15s15-6.716,15-15c0-16.542,13.458-30,30-30    c16.759,0,30,13.53,30,30v182c0,16.542-13.458,30-30,30s-30-13.458-30-30v-45c0-8.284-6.716-15-15-15s-15,6.716-15,15v45    c0,16.542-13.458,30-30,30s-30-13.458-30-30v-45C240.959,338.716,234.243,332,225.959,332z M442.014,437.322    C428.367,464.463,397.936,482,364.485,482h-90.573c-16.688,0-31.073-11.613-32.75-26.438c-0.431-3.81-0.171-7.55,0.739-11.093    c8.616,4.791,18.521,7.53,29.059,7.53c17.908,0,33.997-7.896,45-20.377c11.003,12.481,27.092,20.377,45,20.377    c33.084,0,60-26.916,60-60v-72.316l21.282,43.42c0.018,0.035,0.034,0.071,0.053,0.106    C454.013,386.647,453.91,413.66,442.014,437.322z" fill="#FFDA44"/>
	</g>
	<g>
		<path d="M255.959,0c-8.284,0-15,6.716-15,15v60c0,8.284,6.716,15,15,15c8.284,0,15-6.716,15-15V15    C270.959,6.716,264.243,0,255.959,0z" fill="#FFDA44"/>
	</g>
	<g>
		<path d="M480.448,101.118c-2.145-8.002-10.369-12.751-18.372-10.606l-55.979,15c-8.003,2.144-12.751,10.369-10.607,18.371    c2.144,8.001,10.368,12.751,18.372,10.606l55.979-15C477.844,117.345,482.592,109.12,480.448,101.118z" fill="#FFDA44"/>
	</g>
	<g>
		<path d="M109.842,105.512l-55.981-15c-8.004-2.146-16.227,2.604-18.371,10.606s2.604,16.227,10.606,18.371l55.981,15    c8.006,2.146,16.228-2.609,18.371-10.606C122.592,115.881,117.844,107.656,109.842,105.512z" fill="#FFDA44"/>
	</g>
	<g>
		<path d="M176.566,64.393l-30-30c-5.857-5.858-15.355-5.858-21.213,0c-5.858,5.858-5.858,15.355,0,21.213l30,30    c5.857,5.858,15.356,5.858,21.213,0C182.424,79.748,182.424,70.251,176.566,64.393z" fill="#FFDA44"/>
	</g>
	<g>
		<path d="M386.566,34.393c-5.857-5.858-15.355-5.858-21.213,0l-30,30c-5.858,5.858-5.858,15.355,0,21.213    c5.857,5.858,15.355,5.859,21.213,0l30-30C392.424,49.748,392.424,40.251,386.566,34.393z" fill="#FFDA44"/>
	</g>
</svg>
